Coordinates
version=1
nRows=16
nColumns=28
inDegrees=yes

Units are S.I. units (second, meters, Newtons, ...)
Angles are in degrees.

endheader
time	pelvis_tilt	pelvis_list	pelvis_rotation	pelvis_tx	pelvis_ty	pelvis_tz	hip_flexion_r	hip_adduction_r	hip_rotation_r	knee_angle_r	ankle_angle_r	subtalar_angle_r	mtp_angle_r	hip_flexion_l	hip_adduction_l	hip_rotation_l	knee_angle_l	socket_flexion	socket_adduction	socket_rotation	socket_tx	socket_ty	socket_tz	foot_flex	lumbar_extension	lumbar_bending	lumbar_rotation
      0.95000000	      3.76707970	     -1.42359445	     -3.99312875	      0.41876464	      1.03926876	      0.33840216	     -0.15622899	      6.09541613	     -0.32708354	    -16.71017384	     10.94056213	     -6.70211181	      6.92250290	     11.73697933	     -5.94472646	     -6.41619761	    -68.58514892	    -10.77194268	      0.00000000	      0.00000000	      0.00000000	      0.03399655	      0.00000000	      0.20193527	    -11.37960131	      0.29002913	      6.01559364
      0.95416667	      3.78045696	     -1.40822747	     -4.24357327	      0.42310471	      1.03999915	      0.33887839	     -0.48269317	      6.02069789	     -0.38628295	    -16.63924139	     10.94608898	     -6.65912890	      6.93367910	     12.31628435	     -5.93940591	     -6.39423517	    -68.25283649	    -10.81097301	      0.00000000	      0.00000000	      0.00000000	      0.03387177	      0.00000000	      0.23149224	    -11.52037691	      0.25979699	      6.02237926
      0.95833333	      3.70715621	     -1.17147075	     -4.38639245	      0.42807899	      1.04083310	      0.33936241	     -1.02184305	      5.74084379	     -0.22907511	    -15.98542330	     10.81231777	     -6.23684067	      6.99501865	     12.96990174	     -5.67875839	     -6.30989176	    -67.81549844	    -10.81974595	      0.00000000	      0.00000000	      0.00000000	      0.03422682	      0.00000000	      0.23826394	    -11.42145230	     -0.07892566	      6.14211973
      0.96250000	      3.71605111	     -1.16529001	     -4.63870876	      0.43234861	      1.04146531	      0.33981718	     -1.32417847	      5.66965813	     -0.29586073	    -15.94116856	     10.80493881	     -6.19570609	      7.00367020	     13.54039623	     -5.67703623	     -6.27476961	    -67.43498831	    -10.86128631	      0.00000000	      0.00000000	      0.00000000	      0.03408588	      0.00000000	      0.26881497	    -11.57564612	     -0.10768732	      6.16382034
      0.96666667	      3.61919786	     -0.93310011	     -4.78025051	      0.43738895	      1.04218975	      0.34029473	     -1.83266725	      5.39212947	     -0.16818442	    -15.29730998	     10.64725121	     -5.75382109	      7.06046674	     14.13071094	     -5.40582395	     -6.17546723	    -66.79930092	    -10.82296327	      0.00000000	      0.00000000	      0.00000000	      0.03408479	      0.00000000	      0.26438981	    -11.43504430	     -0.43711346	      6.36565172
      0.97083333	      3.63537794	     -0.93679574	     -5.03117749	      0.44158995	      1.04274307	      0.34077365	     -2.12411548	      5.33106109	     -0.23362309	    -15.28429993	     10.63952569	     -5.71901464	      7.06848370	     14.69398494	     -5.42001454	     -6.12676074	    -66.39274770	    -10.87775868	      0.00000000	      0.00000000	      0.00000000	      0.03406621	      0.00000000	      0.29657112	    -11.59209138	     -0.46377623	      6.38824588
      0.97500000	      3.51287152	     -0.72992484	     -5.17852851	      0.44669630	      1.04331374	      0.34117070	     -2.59961710	      5.06883399	     -0.12087041	    -14.65265060	     10.47445831	     -5.24368997	      7.14067768	     15.20908887	     -5.15469111	     -6.00453961	    -65.56839442	    -10.80869760	      0.00000000	      0.00000000	      0.00000000	      0.03356209	      0.00000000	      0.27374154	    -11.42608643	     -0.75343162	      6.64607266
      0.97916667	      3.46686082	     -0.61821138	     -5.40545814	      0.45147255	      1.04383147	      0.34164004	     -2.98620604	      4.88133241	     -0.14286383	    -14.34037386	     10.35314426	     -4.86196046	      7.25610563	     15.65293325	     -5.02135233	     -5.95915540	    -64.79469774	    -10.77076461	      0.00000000	      0.00000000	      0.00000000	      0.03302180	      0.00000000	      0.26267431	    -11.41573769	     -0.93744721	      6.89032381
      0.98333333	      3.44280991	     -0.53716148	     -5.62962234	      0.45611318	      1.04429601	      0.34211646	     -3.37983832	      4.72960093	     -0.14996542	    -14.05488670	     10.30079524	     -4.50517684	      7.40709049	     16.08886061	     -4.91664064	     -5.88190201	    -64.03386482	    -10.74159665	      0.00000000	      0.00000000	      0.00000000	      0.03256675	      0.00000000	      0.26222031	    -11.43633429	     -1.09144225	      7.10406955
      0.98750000	      3.65353066	     -0.41674074	     -5.88721809	      0.46075336	      1.04497797	      0.34255781	     -3.93665488	      4.45171994	     -0.44314337	    -13.91925491	     10.19328620	     -3.66477253	      8.67546085	     16.18303181	     -4.74896877	     -5.87188771	    -63.10437273	    -10.68175776	      0.00000000	      0.00000000	      0.00000000	      0.03178268	      0.00000000	      0.24829449	    -11.74067046	     -1.31541144	      7.39891862
      0.99166667	      3.54610910	     -0.38050605	     -6.02242259	      0.46531929	      1.04522043	      0.34290644	     -4.27172127	      4.37993633	     -0.37426266	    -13.58102856	     10.14460221	     -3.53477000	      8.72573207	     16.74906387	     -4.68237268	     -5.68218495	    -62.38722678	    -10.67936581	      0.00000000	      0.00000000	      0.00000000	      0.03147407	      0.00000000	      0.26347873	    -11.69474794	     -1.38810900	      7.46285841
      0.99583333	      3.45086281	     -0.35821736	     -6.17076401	      0.46981066	      1.04543354	      0.34324211	     -4.59510665	      4.31753170	     -0.31296384	    -13.28013739	     10.08027599	     -3.39777478	      8.76278554	     17.28559401	     -4.62970247	     -5.49266327	    -61.61839653	    -10.66005062	      0.00000000	      0.00000000	      0.00000000	      0.03111872	      0.00000000	      0.26847487	    -11.67588076	     -1.43849470	      7.53838965
      1.00000000	      3.33970032	     -0.34416788	     -6.31984234	      0.47448469	      1.04556132	      0.34362871	     -4.94423494	      4.26251170	     -0.27807311	    -12.91951376	      9.99486694	     -3.24854272	      8.80539894	     17.77136865	     -4.59668894	     -5.33016412	    -60.75518927	    -10.62503542	      0.00000000	      0.00000000	      0.00000000	      0.03051217	      0.00000000	      0.26323763	    -11.60096102	     -1.48462419	      7.63479327
      1.00416667	      3.25014916	     -0.34857669	     -6.46543288	      0.47889766	      1.04566352	      0.34395722	     -5.25894403	      4.22529639	     -0.20512639	    -12.64533148	      9.94275526	     -3.11806742	      8.84320696	     18.28432131	     -4.57105250	     -5.11623840	    -59.95253143	    -10.60837440	      0.00000000	      0.00000000	      0.00000000	      0.03016939	      0.00000000	      0.27240776	    -11.61248682	     -1.51623392	      7.71751775
      1.00833333	      3.13083856	     -0.36286865	     -6.59949766	      0.48357632	      1.04567427	      0.34429199	     -5.60606671	      4.20279209	     -0.15265413	    -12.27271050	      9.89442196	     -2.97651156	      8.88373500	     18.73926851	     -4.55629358	     -4.89989625	    -59.01889835	    -10.57196569	      0.00000000	      0.00000000	      0.00000000	      0.02948099	      0.00000000	      0.26333299	    -11.53641002	     -1.52761361	      7.81322250
      1.01250000	      3.02949831	     -0.38754073	     -6.72500271	      0.48805103	      1.04563753	      0.34462873	     -5.92946274	      4.19633427	     -0.09179222	    -11.97766145	      9.83561486	     -2.85681271	      8.91795943	     19.20315495	     -4.55934699	     -4.68757810	    -58.08897887	    -10.51773245	      0.00000000	      0.00000000	      0.00000000	      0.02890535	      0.00000000	      0.26767487	    -11.52296001	     -1.53517912	      7.89420478
